<svg data-v-0dd9719b="" version="1.0" xmlns="http://www.w3.org/2000/svg" xmlns:xlink="http://www.w3.org/1999/xlink" width="100%" height="100%" viewBox="0 0 340.000000 250.000000" preserveAspectRatio="xMidYMid meet" color-interpolation-filters="sRGB" style="margin: auto;"> <rect data-v-0dd9719b="" x="0" y="0" width="100%" height="100%" fill="#ffffff" fill-opacity="1" class="background"></rect> <rect data-v-0dd9719b="" x="0" y="0" width="100%" height="100%" fill="url(#watermark)" fill-opacity="1" class="watermarklayer"></rect> <g data-v-0dd9719b="" fill="#53057c" class="icon-text-wrapper icon-svg-group iconsvg" transform="translate(47.13999938964844,95)"><g class="iconsvg-imagesvg" transform="translate(0,0)"><g><rect fill="#53057c" fill-opacity="0" stroke-width="2" x="0" y="0" width="60" height="60" class="image-rect"></rect> <svg filter="url(#colors2481369319)" x="0" y="0" width="60" height="60" filtersec="colorsf2069057136" class="image-svg-svg primary" style="overflow: visible;"><svg fill="#000000" xmlns="http://www.w3.org/2000/svg" viewBox="0 0 24 24" x="0px" y="0px"><path fill-rule="evenodd" d="M276,432 C269.372583,432 264,426.627417 264,420 C264,413.372583 269.372583,408 276,408 C282.627417,408 288,413.372583 288,420 C288,426.627417 282.627417,432 276,432 Z M272,420 C272,417.268292 270.899047,414.71831 269,412.858249 C267.100953,414.71831 266,417.268292 266,420 C266,422.731708 267.100953,425.28169 269,427.141751 C270.899047,425.28169 272,422.731708 272,420 Z M270.570848,428.399293 C272.134344,429.411989 273.998504,430 276,430 C281.522847,430 286,425.522847 286,420 C286,414.477153 281.522847,410 276,410 C273.998504,410 272.134344,410.588011 270.570848,411.600707 C272.743632,413.816042 274,416.806153 274,420 C274,423.193847 272.743632,426.183958 270.570848,428.399293 L270.570848,428.399293 Z" transform="translate(-264 -408)"></path><desc>Created with Snap</desc><defs></defs></svg></svg> <defs><filter id="colors2481369319"><feColorMatrix type="matrix" values="0 0 0 0 0.32421875  0 0 0 0 0.01953125  0 0 0 0 0.484375  0 0 0 1 0" class="icon-fecolormatrix"></feColorMatrix></filter> <filter id="colorsf2069057136"><feColorMatrix type="matrix" values="0 0 0 0 0.99609375  0 0 0 0 0.99609375  0 0 0 0 0.99609375  0 0 0 1 0" class="icon-fecolormatrix"></feColorMatrix></filter> <filter id="colorsb4010099684"><feColorMatrix type="matrix" values="0 0 0 0 0  0 0 0 0 0  0 0 0 0 0  0 0 0 1 0" class="icon-fecolormatrix"></feColorMatrix></filter></defs></g></g> <g transform="translate(67,16.984999656677246)"><g data-gra="path-name" fill-rule="" class="tp-name iconsvg-namesvg"><g transform="scale(1)"><g><path d="M18.42-25.37L27.78-25.37 26.18 0.17 18.25 0.52 18.32-12.94 14.74-2.09 11.67-2.09 8.93-11.8 8.89-0.52 0.85-0.28 1.2-24.32 10.14-24.67 13.69-13.15 18.42-25.37ZM43.91-24.91L50.7-1.5 42.07-0.38 41.02-4.31 37.06-4.31 36.19-0.38 27.31-1.25 34.24-24.43 43.91-24.91ZM37.79-9.64L40.4-9.64 39.08-15.69 37.79-9.64ZM67.21-23.77L67.21-23.77 66.58-16.42Q66.08-16.56 65.59-16.62 65.1-16.67 64.6-16.67L64.6-16.67Q63.36-16.67 62.24-16.35 61.12-16.04 60.26-15.4 59.4-14.75 58.88-13.77 58.37-12.79 58.37-11.45L58.37-11.45Q58.37-10.47 58.66-9.75 58.94-9.03 59.48-8.55 60.01-8.07 60.76-7.83 61.52-7.59 62.44-7.59L62.44-7.59Q63.09-7.59 63.76-7.72 64.44-7.85 65.12-8.07 65.8-8.3 66.43-8.59 67.05-8.89 67.59-9.22L67.59-9.22 67.31-1.04Q66.63-0.7 65.85-0.43 65.07-0.16 64.24 0.04 63.42 0.24 62.59 0.35 61.76 0.45 61.01 0.45L61.01 0.45Q58.54 0.45 56.52-0.47 54.49-1.39 53.04-2.98 51.59-4.58 50.78-6.68 49.98-8.79 49.98-11.17L49.98-11.17Q49.98-14.02 50.79-16.49 51.6-18.96 53.18-20.78 54.75-22.6 57.07-23.64 59.4-24.67 62.41-24.67L62.41-24.67Q63.61-24.67 64.84-24.48 66.08-24.29 67.21-23.77ZM84.03-24.91L90.82-1.5 82.19-0.38 81.14-4.31 77.18-4.31 76.31-0.38 67.43-1.25 74.36-24.43 84.03-24.91ZM77.91-9.64L80.52-9.64 79.2-15.69 77.91-9.64ZM111.57-16.77L111.57-16.77Q111.57-15.41 111.34-14.31 111.1-13.21 110.6-12.28 110.09-11.36 109.29-10.58 108.49-9.8 107.36-9.08L107.36-9.08 111.5-1.71 103.67-0.17 101-7.59 98.84-7.52 98.53-0.28 91.04-0.28Q91.13-4.25 91.21-8.18 91.29-12.11 91.39-16.08L91.39-16.08Q91.43-18.08 91.46-20.04 91.5-22.01 91.6-24.01L91.6-24.01Q92.82-24.46 94-24.76 95.18-25.05 96.38-25.22 97.57-25.38 98.79-25.44 100.02-25.51 101.31-25.51L101.31-25.51Q103.29-25.51 105.14-24.96 107-24.41 108.42-23.31 109.85-22.22 110.71-20.58 111.57-18.95 111.57-16.77ZM103.78-16.21L103.78-16.21Q103.78-16.95 103.58-17.55 103.38-18.16 102.99-18.61 102.6-19.05 102.01-19.3 101.43-19.56 100.65-19.56L100.65-19.56Q100.3-19.56 99.97-19.51 99.64-19.47 99.33-19.38L99.33-19.38 99.05-12.91 99.46-12.91Q100.21-12.91 100.99-13.1 101.76-13.29 102.38-13.69 103-14.09 103.39-14.72 103.78-15.35 103.78-16.21ZM134.28-13.33L134.28-13.33Q134.28-11.74 133.91-10.27 133.55-8.8 132.86-7.52 132.17-6.23 131.19-5.16 130.21-4.09 128.98-3.32 127.75-2.56 126.31-2.13 124.87-1.71 123.25-1.71L123.25-1.71Q121.68-1.71 120.26-2.11 118.85-2.51 117.61-3.23 116.38-3.95 115.38-4.97 114.37-5.98 113.67-7.23 112.97-8.47 112.57-9.9 112.18-11.33 112.18-12.87L112.18-12.87Q112.18-14.39 112.55-15.84 112.91-17.29 113.6-18.58 114.29-19.87 115.26-20.95 116.24-22.03 117.45-22.81 118.65-23.59 120.06-24.03 121.47-24.46 123.04-24.46L123.04-24.46Q125.56-24.46 127.64-23.68 129.72-22.9 131.19-21.44 132.66-19.99 133.47-17.93 134.28-15.87 134.28-13.33ZM126.55-12.87L126.55-12.87Q126.55-13.62 126.34-14.33 126.12-15.03 125.7-15.58 125.28-16.13 124.67-16.47 124.05-16.81 123.25-16.81L123.25-16.81Q122.43-16.81 121.79-16.51 121.14-16.21 120.68-15.7 120.22-15.19 119.98-14.5 119.73-13.81 119.73-13.05L119.73-13.05Q119.73-12.32 119.94-11.59 120.15-10.86 120.57-10.26 120.99-9.67 121.6-9.31 122.22-8.94 123.04-8.94L123.04-8.94Q123.86-8.94 124.51-9.26 125.16-9.59 125.61-10.13 126.07-10.68 126.31-11.4 126.55-12.11 126.55-12.87ZM156.9-8.8L156.9-8.8Q156.9-6.84 156.85-4.91 156.81-2.99 156.72-1.04L156.72-1.04 146.7-1.22Q147.22-4.3 147.6-7.37 147.99-10.44 147.99-13.57L147.99-13.57Q147.99-13.8 147.97-14.3 147.95-14.81 147.9-15.44 147.85-16.08 147.75-16.75 147.66-17.42 147.49-17.97 147.33-18.53 147.09-18.89 146.86-19.24 146.53-19.24L146.53-19.24Q145.93-19.24 145.53-18.89 145.12-18.55 144.85-18 144.58-17.45 144.42-16.77 144.26-16.09 144.19-15.41 144.11-14.74 144.08-14.14 144.06-13.54 144.06-13.15L144.06-13.15Q143.97-10.07 143.92-7.04 143.86-4 143.78-0.9L143.78-0.9 134.9-0.52Q135.25-6.66 135.57-12.74 135.9-18.81 136.09-24.95L136.09-24.95 144.3-25.37 144.23-22.58Q144.72-23.17 145.28-23.7 145.85-24.22 146.49-24.59 147.14-24.97 147.86-25.18 148.58-25.4 149.38-25.4L149.38-25.4Q150.86-25.4 151.97-24.91 153.09-24.43 153.89-23.59 154.69-22.76 155.23-21.62 155.76-20.48 156.1-19.19 156.43-17.9 156.6-16.5 156.77-15.1 156.83-13.74 156.9-12.39 156.9-11.12 156.9-9.85 156.9-8.8ZM179.36-15.24L179.57-3.9Q178.75-2.87 177.55-2.11 176.35-1.34 174.97-0.84 173.6-0.33 172.15-0.08 170.71 0.17 169.4 0.17L169.4 0.17Q166.88 0.17 164.76-0.68 162.64-1.53 161.1-3.05 159.56-4.58 158.69-6.68 157.82-8.79 157.82-11.27L157.82-11.27Q157.82-13.17 158.25-14.96 158.69-16.75 159.5-18.32 160.31-19.89 161.47-21.19 162.64-22.5 164.12-23.44 165.59-24.37 167.36-24.89 169.13-25.4 171.11-25.4L171.11-25.4Q171.86-25.4 172.71-25.34 173.56-25.28 174.41-25.13 175.25-24.98 176.05-24.72 176.85-24.46 177.51-24.08L177.51-24.08 177.02-17.43Q176.05-17.8 175.02-17.93 173.98-18.06 172.99-18.06L172.99-18.06Q171.6-18.06 170.39-17.69 169.18-17.31 168.28-16.58 167.39-15.85 166.86-14.75 166.34-13.66 166.34-12.21L166.34-12.21Q166.34-11.31 166.59-10.46 166.83-9.62 167.33-8.97 167.82-8.32 168.56-7.92 169.3-7.52 170.27-7.52L170.27-7.52Q170.94-7.52 171.64-7.69 172.34-7.86 172.85-8.28L172.85-8.28 172.92-9.64 168.74-9.71 168.95-14.93Q171.54-15.01 174.14-15.08 176.73-15.14 179.36-15.24L179.36-15.24Z" transform="translate(-0.8500000238418579, 25.510000228881836)"></path></g> <!----> <!----> <!----> <!----> <!----> <!----> <!----></g></g> <!----></g></g><defs v-gra="od"></defs></svg>